<?xml version="1.0" encoding="UTF-8"?>
<svg width="14px" height="14px" viewBox="0 0 14 14" version="1.1" xmlns="http://www.w3.org/2000/svg" xmlns:xlink="http://www.w3.org/1999/xlink">
    <title>BBF4DCB7-053B-4716-98AC-D61E2E24F343</title>
    <g id="invision" stroke="none" stroke-width="1" fill="none" fill-rule="evenodd">
        <g id="megovka-fast-v1-light" transform="translate(-1167.000000, -408.000000)" fill="#102447" fill-rule="nonzero">
            <g id="online" transform="translate(864.000000, 243.000000)">
                <g id="08-button/05-show-more/01-gray-default" transform="translate(0.000000, 154.000000)">
                    <g id="icon/read-more" transform="translate(303.000000, 11.000000)">
                        <path d="M9.75433594,7.40217187 L5.94064844,11.2056328 C5.71850781,11.4277734 5.35970313,11.4277734 5.14100781,11.2056328 L4.35503906,10.4230547 C4.13289844,10.2009687 4.13289844,9.84210937 4.35503906,9.62341406 L6.97949219,6.99896094 L4.35503906,4.37445313 C4.13289844,4.1523125 4.13289844,3.79350781 4.35503906,3.5748125 L5.14100781,2.78884375 C5.36309375,2.56670312 5.72195313,2.56670312 5.94064844,2.78884375 L9.75433594,6.60253125 C9.97647656,6.82467187 9.97647656,7.18347656 9.75433594,7.40217187 M11.8125,0 L2.1875,0 C0.984375,0 0,0.984375 0,2.1875 L0,11.8125 C0,13.015625 0.984375,14 2.1875,14 L11.8125,14 C13.015625,14 14,13.015625 14,11.8125 L14,2.1875 C14,0.984375 13.015625,0 11.8125,0" id="icon"></path>
                    </g>
                </g>
            </g>
        </g>
    </g>
</svg>