<?xml version="1.0" encoding="UTF-8"?>
<svg width="13.0827166px" height="13.7136px" viewBox="0 0 13.0827166 13.7136" version="1.1" xmlns="http://www.w3.org/2000/svg" xmlns:xlink="http://www.w3.org/1999/xlink">
    <title>C3361EC1-0D42-4F06-B15F-04239119995D</title>
    <g id="invision" stroke="none" stroke-width="1" fill="none" fill-rule="evenodd">
        <g id="megovka-fast-v1-light" transform="translate(-689.275347, -383.428400)" fill="#FFFFFF" fill-rule="nonzero">
            <g id="gallery" transform="translate(670.000000, 237.000000)">
                <g id="Group" transform="translate(19.000000, 143.000000)">
                    <g id="icon/gallery" transform="translate(0.275347, 3.428400)">
                        <path d="M10.3965655,6.04701192 C10.3965655,5.7391416 10.144898,5.48845699 9.8358206,5.48845699 C9.68548094,5.48845699 9.54450309,5.54673979 9.43863204,5.65219738 C9.33303633,5.75751782 9.27507571,5.89767082 9.27521314,6.04687478 C9.27521314,6.35488224 9.52674319,6.60542971 9.8358206,6.60542971 C10.144898,6.60542971 10.3965655,6.35488224 10.3965655,6.04701192 L10.3965655,6.04701192 Z M11.2288029,6.04687478 C11.2288029,6.81195653 10.603902,7.43441683 9.8358206,7.43441683 C9.06773915,7.43441683 8.44283832,6.81195653 8.44283832,6.04687478 C8.44283832,5.28179304 9.06773915,4.65933274 9.8358206,4.65933274 C10.603902,4.65933274 11.2288029,5.28179304 11.2288029,6.04687478 L11.2288029,6.04687478 Z M0.967708285,12.8695279 L0.983953779,12.8700765 L12.1030307,12.8700765 C12.180954,12.8700765 12.2440086,12.8120679 12.2499285,12.7352718 L12.2503416,11.8606184 L9.28030731,8.98460218 L8.0647864,10.1953759 L8.74337996,10.8711821 C8.90142934,11.0284771 8.90142934,11.2943838 8.74337996,11.4515417 C8.6715143,11.5239495 8.55972327,11.5690672 8.45206246,11.5690672 C8.35899505,11.5690672 8.26069604,11.5347832 8.18924341,11.4771861 L8.16487516,11.4555186 L3.38952596,6.69895646 L0.832237385,9.24612053 L0.832237385,12.7234781 C0.832237385,12.8008228 0.890473351,12.8637682 0.967708285,12.8695279 L0.967708285,12.8695279 Z M12.2503416,4.21487496 C12.2503416,4.13245622 12.1856349,4.0680023 12.1030307,4.0680023 L0.979685895,4.0680023 C0.901762593,4.06813944 0.838708048,4.1262851 0.83278808,4.20308126 L0.832237385,4.21926331 L0.832237385,8.07100214 L3.08430341,5.82786859 C3.16153835,5.74997534 3.25969968,5.71048018 3.37548324,5.71048018 C3.47777479,5.71048018 3.56698733,5.74188432 3.64064275,5.80386979 L3.66349658,5.82457733 L7.46783333,9.61460496 L8.97370802,8.10103493 C9.04887785,8.02615867 9.15502426,7.98337224 9.26543855,7.98337224 C9.36442592,7.98337224 9.45914541,8.01697056 9.53211246,8.07827035 L9.55303886,8.09705798 L12.2503416,10.7180012 L12.2503416,4.21487496 Z M13.0827166,4.21295506 L13.0827166,12.7378774 C13.0827166,13.2665366 12.6679058,13.6948124 12.1382752,13.7130515 L12.1039944,13.7136 L0.979823568,13.7136 C0.449091539,13.7136 0.0189989676,13.3004092 0.000550694713,12.7729842 L1.66533454e-16,12.7397973 L1.66533454e-16,4.21487496 C1.66533454e-16,3.68621568 0.414810793,3.25780282 0.944441433,3.23942659 L0.977896137,3.23887805 L12.1031684,3.23887805 C12.6339004,3.23887805 13.0638553,3.65220595 13.0821659,4.17963101 L13.0827166,4.21295506 Z M2.86182275,0.815410656 L10.2345236,0.815410656 C10.4603084,0.815410656 10.6438274,0.632471232 10.6438274,0.407705328 C10.6438274,0.190481904 10.4525987,8.8817842e-16 10.2345236,8.8817842e-16 L2.86182275,0.00068568 C2.63631327,0.00068568 2.45279425,0.183487968 2.45279425,0.40866528 C2.45362029,0.63288264 2.63700163,0.815410656 2.86182275,0.815410656 L2.86182275,0.815410656 Z M1.22667247,2.02728149 C1.22667247,1.81485782 1.39325762,1.63630675 1.60582578,1.62094752 L1.63583865,1.61985043 L11.4475664,1.61916475 C11.6656415,1.61916475 11.8567325,1.80964666 11.8567325,2.02687008 C11.8567325,2.23929374 11.6901474,2.41784482 11.4774415,2.43334118 L11.4494938,2.43443827 L1.63583865,2.43443827 C1.41032916,2.43443827 1.22667247,2.25177312 1.22667247,2.02728149 L1.22667247,2.02728149 Z" id="icon"></path>
                    </g>
                </g>
            </g>
        </g>
    </g>
</svg>